<svg width="585" height="522" viewBox="0 0 585 522" fill="none" xmlns="http://www.w3.org/2000/svg">
<g clip-path="url(#clip0_2_906)">
<mask id="mask0_2_906" style="mask-type:luminance" maskUnits="userSpaceOnUse" x="0" y="0" width="585" height="523">
<path d="M0 0H585V523H0V0Z" fill="white"/>
</mask>
<g mask="url(#mask0_2_906)">
<g opacity="0.2">
<path d="M310.023 257.902L353.395 227.381L353.396 177.622L477.579 90.2343L477.316 89.6786L352.869 177.253L352.868 227.012L309.76 257.346L310.023 257.902Z" fill="#42E8DF"/>
<path d="M365.941 168.609L365.942 123.046L418.844 85.8202L418.58 85.2645L365.416 122.677L365.414 168.609H365.941Z" fill="#42E8DF"/>
<path d="M318.154 263.625L360.194 234.042L433.52 234.041L497.791 188.814L497.65 188.172L433.378 233.399L360.052 233.4L317.892 263.07L318.154 263.625Z" fill="#42E8DF"/>
<path d="M255.636 263.625L255.899 263.07L171.059 203.367L120.543 203.368L88.9699 181.151V145.102H88.4433V181.52L88.5748 181.613L120.402 204.01L170.918 204.008L255.636 263.625Z" fill="#42E8DF"/>
<path d="M265.776 256.491L266.039 255.935L180.25 195.566L180.252 159.598L180.12 159.505L149.222 137.761L148.959 138.317L179.725 159.968L179.724 195.936L179.856 196.029L265.776 256.491Z" fill="#42E8DF"/>
<path d="M276.4 249.014L276.664 248.458L226.23 212.968V182.84L313.918 121.134L313.655 120.578L225.703 182.47V213.337L225.836 213.431L276.4 249.014Z" fill="#42E8DF"/>
<path d="M3.49763 386.164H81.3839L137.461 346.702H183.837L247.767 301.713L247.503 301.157L183.696 346.06H137.32L81.2425 385.522H3.63845L-30.6105 361.422L-30.8741 361.978L3.49763 386.164Z" fill="#42E8DF"/>
<path d="M99.1204 358.698L126.812 339.211H180.035L240.544 296.631L240.28 296.075L179.894 338.569H126.671L98.8574 358.142L99.1204 358.698Z" fill="#42E8DF"/>
<path d="M212.622 316.094L212.885 315.538L168.441 284.262H136.556L115.966 298.752L116.229 299.308L136.697 284.903H168.3L212.622 316.094Z" fill="#42E8DF"/>
<path d="M92.1843 393.946L117.124 376.395V361.098H116.597V376.025L91.9207 393.39L92.1843 393.946Z" fill="#42E8DF"/>
<path d="M248.065 167.425H268.237L304.295 142.052L304.032 141.496L268.095 166.784H248.065V167.425Z" fill="#42E8DF"/>
<path d="M266.619 241.945H267.146V225.709L267.014 225.617L242.197 208.152V191.383H241.671V208.522L241.802 208.615L266.619 226.079V241.945Z" fill="#42E8DF"/>
<path d="M406.598 422.231L406.861 421.675L363.656 391.272L363.657 341.513L363.525 341.419L316.298 308.186L316.036 308.742L363.13 341.882L363.129 391.641L363.262 391.734L406.598 422.231Z" fill="#42E8DF"/>
<path d="M377.326 442.831L377.589 442.276L360.614 430.33V408.393L360.482 408.301L343.887 396.622L343.888 338.302L343.756 338.209L308.695 313.536L308.432 314.092L343.362 338.671L343.361 396.992L343.492 397.085L360.088 408.763V430.7L360.219 430.793L377.326 442.831Z" fill="#42E8DF"/>
<path d="M511.34 357.086L511.603 356.529L497.9 346.885H468.922L416.688 310.127L370.762 310.128L342.151 289.993L341.887 290.55L370.621 310.77L416.547 310.769L468.781 347.526H497.758L511.34 357.086Z" fill="#42E8DF"/>
<path d="M481.731 331.907L481.994 331.351L463.685 318.468H428.471V319.109H463.544L481.731 331.907Z" fill="#42E8DF"/>
<path d="M473.612 427.507L473.875 426.951L406.825 379.767V355.007L406.693 354.915L328.294 299.745L328.031 300.3L406.299 355.377V380.136L406.43 380.23L473.612 427.507Z" fill="#42E8DF"/>
<path d="M472.582 428.87C473.5 429.517 474.99 429.517 475.909 428.87C476.828 428.224 476.828 427.175 475.909 426.529C474.99 425.882 473.5 425.882 472.582 426.529C471.664 427.175 471.664 428.224 472.582 428.87Z" fill="#42E8DF"/>
<path d="M404.635 423.527C405.553 424.174 407.042 424.174 407.961 423.527C408.88 422.881 408.88 421.832 407.961 421.186C407.042 420.539 405.553 420.539 404.635 421.186C403.716 421.832 403.716 422.881 404.635 423.527Z" fill="#42E8DF"/>
<path d="M376.688 444.232C377.607 444.878 379.096 444.878 380.015 444.232C380.933 443.585 380.933 442.537 380.015 441.89C379.096 441.244 377.607 441.244 376.688 441.89C375.77 442.537 375.77 443.585 376.688 444.232Z" fill="#42E8DF"/>
<path d="M326.56 269.54L356.819 248.247L441.78 248.246L503.236 204.999L502.973 204.443L441.638 247.604L356.677 247.606L326.297 268.984L326.56 269.54Z" fill="#42E8DF"/>
<path d="M395.258 260.476L442.164 260.475V259.833L395.399 259.834L378.084 247.648L377.82 248.203L395.258 260.476Z" fill="#42E8DF"/>
<path d="M269.587 479.74L269.588 444.626L269.456 444.533L201.896 396.991L201.897 359.406L265.824 314.422L265.561 313.865L201.37 359.037L201.369 397.361L201.501 397.455L269.061 444.997L269.06 479.74H269.587Z" fill="#42E8DF"/>
<path d="M282.855 435.208L283.118 434.652L259.678 418.157H231.986V418.798H259.537L282.855 435.208Z" fill="#42E8DF"/>
<path d="M227.859 353.917L274.905 320.811L274.642 320.256L227.597 353.361L227.859 353.917Z" fill="#42E8DF"/>
<path d="M325.638 437.069L325.64 339.641L325.509 339.547L298.62 320.626L298.357 321.181L325.114 340.009L325.112 437.069H325.638Z" fill="#42E8DF"/>
<path d="M323.536 439.557C324.454 440.203 325.943 440.203 326.862 439.557C327.781 438.91 327.781 437.861 326.862 437.215C325.943 436.568 324.454 436.568 323.536 437.215C322.617 437.861 322.617 438.91 323.536 439.557Z" fill="#42E8DF"/>
<path d="M311.763 423.024L311.764 389.39L325.508 379.718L325.245 379.162L311.238 389.02L311.236 423.024H311.763Z" fill="#42E8DF"/>
<path d="M499.779 301.015L500.042 300.459L457.75 270.699H392.619L371.021 255.501H360.379L333.757 274.235L334.02 274.79L360.52 256.143H370.88L392.477 271.341H457.609L499.779 301.015Z" fill="#42E8DF"/>
<path d="M212.045 365.36H229.17L283.692 326.994L283.429 326.438L229.03 364.719H212.045V365.36Z" fill="#42E8DF"/>
<path d="M258.171 381.268L302.926 349.774V336.364L302.794 336.27L289.592 326.979L289.328 327.536L302.399 336.733V349.404L257.908 380.713L258.171 381.268Z" fill="#42E8DF"/>
<path d="M255.226 371.504L275.076 357.535H291.709V356.893H274.935L254.963 370.947L255.226 371.504Z" fill="#42E8DF"/>
<path d="M255.581 401.516L276.337 386.91V375.323L299.658 358.912V351.889H299.131V358.542L275.811 374.953V386.541L255.319 400.96L255.581 401.516Z" fill="#42E8DF"/>
<path d="M253.43 372.397C254.349 373.043 255.838 373.043 256.757 372.397C257.676 371.75 257.676 370.702 256.757 370.055C255.838 369.408 254.349 369.408 253.43 370.055C252.512 370.702 252.512 371.75 253.43 372.397Z" fill="#42E8DF"/>
<path d="M256.317 382.12C257.236 382.766 258.725 382.766 259.643 382.12C260.562 381.473 260.562 380.425 259.643 379.778C258.725 379.132 257.236 379.132 256.317 379.778C255.399 380.425 255.398 381.473 256.317 382.12Z" fill="#42E8DF"/>
<path d="M303.933 376.501C304.851 377.147 306.34 377.147 307.259 376.501C308.178 375.854 308.178 374.806 307.26 374.16C306.341 373.513 304.852 373.513 303.933 374.16C303.014 374.806 303.014 375.854 303.933 376.501Z" fill="#42E8DF"/>
<path d="M403.786 288.993C404.704 289.639 406.194 289.639 407.112 288.993C408.031 288.346 408.031 287.299 407.112 286.652C406.194 286.005 404.704 286.005 403.786 286.652C402.867 287.299 402.867 288.346 403.786 288.993Z" fill="#42E8DF"/>
<path d="M468.176 306.508C469.095 307.155 470.585 307.155 471.503 306.508C472.422 305.862 472.422 304.814 471.503 304.167C470.585 303.521 469.095 303.521 468.176 304.167C467.258 304.814 467.258 305.862 468.176 306.508Z" fill="#42E8DF"/>
<path d="M383.381 276.975C384.3 277.621 385.79 277.621 386.708 276.975C387.626 276.328 387.626 275.28 386.708 274.634C385.79 273.987 384.3 273.987 383.381 274.634C382.463 275.28 382.463 276.328 383.381 276.975Z" fill="#42E8DF"/>
<path d="M376.105 296.431C377.024 297.078 378.513 297.078 379.432 296.431C380.35 295.785 380.35 294.737 379.432 294.09C378.514 293.444 377.024 293.444 376.105 294.09C375.187 294.737 375.187 295.785 376.105 296.431Z" fill="#42E8DF"/>
<path d="M267.66 480.91C268.579 481.557 270.068 481.557 270.987 480.91C271.906 480.264 271.906 479.215 270.987 478.569C270.069 477.922 268.579 477.922 267.66 478.569C266.742 479.215 266.742 480.264 267.66 480.91Z" fill="#42E8DF"/>
<path d="M281.324 436.101C282.242 436.747 283.731 436.747 284.65 436.101C285.569 435.454 285.569 434.406 284.65 433.759C283.731 433.113 282.242 433.113 281.324 433.759C280.405 434.406 280.405 435.454 281.324 436.101Z" fill="#42E8DF"/>
<path d="M59.4554 476.871C60.3738 477.518 61.8631 477.518 62.7815 476.871C63.7005 476.224 63.701 475.176 62.7826 474.529C61.8637 473.883 60.3738 473.883 59.4554 474.529C58.537 475.176 58.537 476.224 59.4554 476.871Z" fill="#42E8DF"/>
<path d="M140.733 478.956C141.651 479.603 143.141 479.603 144.059 478.956C144.978 478.31 144.978 477.262 144.059 476.615C143.141 475.969 141.651 475.969 140.733 476.615C139.815 477.262 139.815 478.31 140.733 478.956Z" fill="#42E8DF"/>
<path d="M165.089 411.422C166.007 412.069 167.497 412.069 168.415 411.422C169.334 410.776 169.334 409.728 168.415 409.081C167.497 408.435 166.007 408.435 165.089 409.081C164.171 409.728 164.171 410.776 165.089 411.422Z" fill="#42E8DF"/>
<path d="M440.5 261.324C441.419 261.971 442.908 261.971 443.826 261.324C444.745 260.678 444.745 259.63 443.826 258.983C442.908 258.337 441.419 258.337 440.5 258.983C439.582 259.63 439.581 260.678 440.5 261.324Z" fill="#42E8DF"/>
<path d="M501.441 205.892C502.359 206.538 503.849 206.538 504.768 205.892C505.686 205.245 505.686 204.197 504.768 203.551C503.849 202.904 502.359 202.904 501.441 203.551C500.522 204.197 500.522 205.245 501.441 205.892Z" fill="#42E8DF"/>
<path d="M497.017 188.927C497.936 189.573 499.426 189.573 500.344 188.927C501.263 188.28 501.263 187.233 500.344 186.586C499.426 185.94 497.936 185.94 497.017 186.586C496.099 187.233 496.099 188.28 497.017 188.927Z" fill="#42E8DF"/>
<path d="M417.43 86.9796C418.348 87.6261 419.837 87.6261 420.756 86.9796C421.675 86.3331 421.675 85.2858 420.756 84.64C419.838 83.9928 418.348 83.9928 417.43 84.64C416.511 85.2858 416.511 86.3331 417.43 86.9796Z" fill="#42E8DF"/>
<path d="M253.786 402.409C254.705 403.056 256.194 403.056 257.112 402.409C258.031 401.763 258.031 400.714 257.112 400.067C256.194 399.421 254.705 399.421 253.786 400.067C252.868 400.714 252.868 401.763 253.786 402.409Z" fill="#42E8DF"/>
<path d="M309.836 424.195C310.754 424.842 312.244 424.842 313.162 424.195C314.081 423.549 314.081 422.5 313.162 421.853C312.244 421.207 310.754 421.207 309.836 421.853C308.918 422.5 308.918 423.549 309.836 424.195Z" fill="#42E8DF"/>
<path d="M480.199 332.8C481.117 333.446 482.607 333.446 483.526 332.8C484.444 332.153 484.444 331.106 483.526 330.459C482.608 329.812 481.117 329.812 480.199 330.459C479.28 331.106 479.28 332.153 480.199 332.8Z" fill="#42E8DF"/>
<path d="M438.106 354.531C439.024 355.177 440.513 355.177 441.432 354.531C442.351 353.884 442.351 352.835 441.432 352.189C440.513 351.542 439.024 351.542 438.106 352.189C437.187 352.835 437.187 353.884 438.106 354.531Z" fill="#42E8DF"/>
<path d="M498.21 301.935C499.128 302.581 500.618 302.581 501.536 301.935C502.455 301.288 502.455 300.24 501.537 299.594C500.618 298.947 499.129 298.947 498.21 299.594C497.291 300.24 497.291 301.288 498.21 301.935Z" fill="#42E8DF"/>
<path d="M210.382 366.211C211.3 366.857 212.789 366.857 213.708 366.211C214.627 365.564 214.627 364.516 213.709 363.869C212.79 363.222 211.3 363.222 210.382 363.869C209.463 364.516 209.463 365.564 210.382 366.211Z" fill="#42E8DF"/>
<path d="M115.506 299.445C116.425 300.092 117.914 300.092 118.832 299.445C119.751 298.799 119.751 297.751 118.832 297.105C117.914 296.459 116.425 296.459 115.506 297.105C114.588 297.751 114.588 298.799 115.506 299.445Z" fill="#42E8DF"/>
<path d="M155.668 258.054C156.586 258.701 158.077 258.701 158.995 258.054C159.914 257.408 159.914 256.36 158.995 255.713C158.077 255.067 156.587 255.067 155.668 255.713C154.75 256.36 154.75 257.408 155.668 258.054Z" fill="#42E8DF"/>
<path d="M178.373 272.393C179.292 273.04 180.782 273.04 181.701 272.393C182.619 271.747 182.619 270.699 181.701 270.053C180.782 269.406 179.292 269.406 178.373 270.053C177.455 270.699 177.455 271.747 178.373 272.393Z" fill="#42E8DF"/>
<path d="M200.186 249.955C201.105 250.601 202.595 250.601 203.513 249.955C204.432 249.308 204.432 248.26 203.513 247.614C202.595 246.967 201.105 246.967 200.186 247.614C199.268 248.26 199.268 249.308 200.186 249.955Z" fill="#42E8DF"/>
<path d="M240.271 192.553C241.189 193.2 242.679 193.2 243.598 192.553C244.516 191.907 244.516 190.86 243.598 190.213C242.679 189.567 241.189 189.567 240.271 190.213C239.352 190.86 239.352 191.907 240.271 192.553Z" fill="#42E8DF"/>
<path d="M86.5567 146.614C87.4751 147.261 88.9644 147.261 89.8828 146.614C90.8018 145.968 90.8023 144.921 89.8839 144.274C88.965 143.628 87.4751 143.628 86.5567 144.274C85.6383 144.921 85.6383 145.968 86.5567 146.614Z" fill="#42E8DF"/>
<path d="M147.427 139.209C148.345 139.856 149.836 139.856 150.754 139.209C151.673 138.563 151.673 137.516 150.754 136.869C149.836 136.223 148.346 136.223 147.427 136.869C146.509 137.516 146.509 138.563 147.427 139.209Z" fill="#42E8DF"/>
<path d="M268.262 196.497C269.181 197.144 270.671 197.144 271.59 196.497C272.508 195.851 272.508 194.803 271.59 194.157C270.671 193.51 269.181 193.51 268.262 194.157C267.344 194.803 267.344 195.851 268.262 196.497Z" fill="#42E8DF"/>
<path d="M271.351 175.598C272.27 176.245 273.759 176.245 274.677 175.598C275.596 174.952 275.596 173.904 274.677 173.258C273.759 172.611 272.27 172.611 271.351 173.258C270.433 173.904 270.432 174.952 271.351 175.598Z" fill="#42E8DF"/>
<path d="M319.543 150.924C320.462 151.571 321.951 151.571 322.869 150.924C323.788 150.278 323.788 149.231 322.869 148.584C321.951 147.937 320.462 147.937 319.543 148.584C318.625 149.231 318.625 150.278 319.543 150.924Z" fill="#42E8DF"/>
<path d="M302.5 142.944C303.418 143.59 304.908 143.59 305.826 142.944C306.745 142.297 306.745 141.25 305.826 140.603C304.908 139.957 303.418 139.957 302.5 140.603C301.581 141.25 301.581 142.297 302.5 142.944Z" fill="#42E8DF"/>
<path d="M475.784 91.1259C476.703 91.7724 478.193 91.7724 479.111 91.1259C480.03 90.4794 480.03 89.4315 479.111 88.7856C478.193 88.1391 476.703 88.1391 475.784 88.7856C474.866 89.4315 474.866 90.4794 475.784 91.1259Z" fill="#42E8DF"/>
<path d="M312.123 122.027C313.042 122.673 314.532 122.673 315.45 122.027C316.369 121.38 316.369 120.333 315.45 119.686C314.532 119.04 313.042 119.04 312.123 119.686C311.205 120.333 311.205 121.38 312.123 122.027Z" fill="#42E8DF"/>
<path d="M209.747 296.155C210.665 296.802 212.154 296.802 213.073 296.155C213.992 295.509 213.992 294.461 213.073 293.814C212.155 293.168 210.665 293.168 209.747 293.814C208.828 294.461 208.828 295.509 209.747 296.155Z" fill="#42E8DF"/>
<path d="M321.958 226.862C322.876 227.509 324.366 227.509 325.284 226.862C326.203 226.216 326.203 225.168 325.284 224.521C324.366 223.875 322.876 223.875 321.958 224.521C321.039 225.168 321.039 226.216 321.958 226.862Z" fill="#42E8DF"/>
<path d="M418.663 186.031C419.582 186.677 421.071 186.677 421.99 186.031C422.908 185.384 422.908 184.337 421.99 183.69C421.071 183.044 419.582 183.044 418.663 183.69C417.745 184.337 417.745 185.384 418.663 186.031Z" fill="#42E8DF"/>
<path d="M489.39 141.498C490.309 142.145 491.799 142.145 492.717 141.498C493.636 140.852 493.636 139.805 492.717 139.158C491.799 138.512 490.309 138.512 489.39 139.158C488.472 139.805 488.472 140.852 489.39 141.498Z" fill="#42E8DF"/>
<path d="M467.277 134.298C468.195 134.944 469.685 134.944 470.604 134.298C471.523 133.651 471.523 132.604 470.604 131.957C469.685 131.311 468.195 131.311 467.277 131.957C466.359 132.604 466.359 133.651 467.277 134.298Z" fill="#42E8DF"/>
<path d="M169.986 299.096C170.904 299.743 172.393 299.743 173.312 299.096C174.231 298.45 174.231 297.402 173.313 296.755C172.395 296.109 170.904 296.109 169.986 296.755C169.067 297.402 169.067 298.45 169.986 299.096Z" fill="#42E8DF"/>
<path d="M90.3891 394.838C91.3075 395.484 92.7968 395.484 93.7152 394.838C94.6342 394.191 94.6347 393.143 93.7163 392.496C92.7974 391.85 91.3075 391.85 90.3891 392.496C89.4707 393.143 89.4707 394.191 90.3891 394.838Z" fill="#42E8DF"/>
<path d="M58.4099 292.543C59.3283 293.19 60.8182 293.19 61.7371 292.543C62.6555 291.897 62.6555 290.849 61.7371 290.202C60.8187 289.556 59.3283 289.556 58.4099 290.202C57.4915 290.849 57.4915 291.897 58.4099 292.543Z" fill="#42E8DF"/>
<path d="M97.3259 359.59C98.2448 360.237 99.7347 360.237 100.653 359.59C101.572 358.944 101.572 357.895 100.653 357.249C99.7347 356.602 98.2448 356.602 97.3259 357.249C96.4075 357.895 96.4075 358.944 97.3259 359.59Z" fill="#42E8DF"/>
<path d="M226.064 354.81C226.982 355.457 228.472 355.457 229.39 354.81C230.309 354.164 230.309 353.116 229.39 352.469C228.472 351.823 226.982 351.823 226.064 352.469C225.146 353.116 225.146 354.164 226.064 354.81Z" fill="#42E8DF"/>
<path d="M305.786 375.65L325.507 361.771L325.244 361.216L305.524 375.094L305.786 375.65Z" fill="#42E8DF"/>
<path d="M221.19 302.192H232.571V301.55H221.331L211.274 294.472L211.011 295.028L221.19 302.192Z" fill="#42E8DF"/>
<path d="M157.463 257.162L184.98 237.798H203.496L227.902 254.973H243.408V254.331H228.043L203.637 237.156H184.838L157.2 256.606L157.463 257.162Z" fill="#42E8DF"/>
<path d="M229.45 282.054L229.713 281.498L201.991 261.99H192.631L180.372 270.617L180.635 271.173L192.772 262.632H201.85L229.45 282.054Z" fill="#42E8DF"/>
<path d="M221.758 276.455H222.285V262.795L222.153 262.702L201.982 248.505L201.718 249.062L221.758 263.165V276.455Z" fill="#42E8DF"/>
<path d="M361.776 304.495H382.283L405.58 288.101L405.317 287.546L382.141 303.854H361.776V304.495Z" fill="#42E8DF"/>
<path d="M61.2494 475.979L132.094 426.125V394.558L255.897 307.437L255.635 306.881L131.567 394.188V425.755L60.987 475.422L61.2494 475.979Z" fill="#42E8DF"/>
<path d="M384.96 276.049L385.224 275.494L367.552 263.059L360.285 263.06L350.924 269.646H340.347V270.288H351.065L360.426 263.702L367.411 263.701L384.96 276.049Z" fill="#42E8DF"/>
<path d="M302.8 252.821L336.334 229.221L336.336 201.945L336.204 201.851L298.524 175.337V166.086L321.338 150.032L321.074 149.476L297.998 165.717V175.707L298.129 175.8L335.809 202.314L335.808 228.851L302.537 252.266L302.8 252.821Z" fill="#42E8DF"/>
<path d="M310.242 247.027H310.769V235.107L323.753 225.97L323.49 225.414L310.242 234.738V247.027Z" fill="#42E8DF"/>
<path d="M379.114 234L458.396 178.207V163.68L491.09 140.674L490.827 140.118L457.869 163.311V177.838L378.851 233.444L379.114 234Z" fill="#42E8DF"/>
<path d="M407.613 193.621H408.139V176.283L469.073 133.406L468.809 132.85L407.613 175.913V193.621Z" fill="#42E8DF"/>
<path d="M359.99 233.814L400.06 205.616V199.491L420.457 185.138L420.195 184.582L399.535 199.122V205.247L359.727 233.258L359.99 233.814Z" fill="#42E8DF"/>
<path d="M166.884 410.53L190.586 393.849V375.39L201.766 367.525L201.502 366.969L190.06 375.02V393.481L166.621 409.974L166.884 410.53Z" fill="#42E8DF"/>
<path d="M187.706 309.595H203.44V308.954H187.847L171.781 297.647L171.518 298.203L187.706 309.595Z" fill="#42E8DF"/>
<path d="M117.69 332.289H189.802V331.647H117.831L60.7743 291.496L60.5108 292.051L117.69 332.289Z" fill="#42E8DF"/>
<path d="M293.187 246.054H293.714V211.696L293.581 211.603L270.438 195.317L270.174 195.873L293.187 212.066V246.054Z" fill="#42E8DF"/>
<path d="M293.582 226.17L310.605 214.191V200.511L310.474 200.416L273.146 174.15L272.883 174.705L310.079 200.88V213.82L293.319 225.615L293.582 226.17Z" fill="#42E8DF"/>
<path d="M439.637 353.638L439.9 353.082L397.774 323.438H361.893V324.079H397.634L439.637 353.638Z" fill="#42E8DF"/>
<path d="M444.451 305.66H469.84V305.018H444.592L433.082 296.918L392.067 296.919V297.561L432.942 297.56L444.451 305.66Z" fill="#42E8DF"/>
<path d="M377.498 295.44L377.761 294.885L358.571 281.38H344.106V282.022H358.43L377.498 295.44Z" fill="#42E8DF"/>
<path d="M142.528 478.063L170.864 458.124V428.528L208.394 402.119L208.13 401.563L170.337 428.158V457.754L142.265 477.507L142.528 478.063Z" fill="#42E8DF"/>
<path d="M510.94 358.074C511.858 358.72 513.348 358.72 514.266 358.074C515.185 357.427 515.185 356.379 514.266 355.732C513.348 355.086 511.858 355.086 510.94 355.732C510.021 356.379 510.021 357.427 510.94 358.074Z" fill="#42E8DF"/>
</g>
<mask id="mask1_2_906" style="mask-type:luminance" maskUnits="userSpaceOnUse" x="-39" y="267" width="318" height="187">
<path d="M176.189 267.491L278.659 314.549L-33.4676 453.471L-38.6733 341.627L176.189 267.491Z" fill="white"/>
</mask>
<g mask="url(#mask1_2_906)">
<path d="M3.49708 386.164H81.3834L137.461 346.702H183.837L247.766 301.713L247.503 301.157L183.696 346.06H137.32L81.242 385.522H3.6379L-30.6111 361.422L-30.8747 361.978L3.49708 386.164Z" fill="#42E8DF"/>
</g>
<mask id="mask2_2_906" style="mask-type:luminance" maskUnits="userSpaceOnUse" x="45" y="126" width="156" height="190">
<path d="M89.1995 126.879L200.488 187.847L182.184 315.908L45.0717 171.909L89.1995 126.879Z" fill="white"/>
</mask>
<g mask="url(#mask2_2_906)">
<path d="M255.636 263.625L255.899 263.069L171.059 203.366L120.543 203.368L88.9699 181.15V145.102H88.4433V181.52L88.5748 181.612L120.402 204.01L170.918 204.008L255.636 263.625Z" fill="#42E8DF"/>
<path d="M86.5567 146.614C87.4751 147.261 88.9644 147.261 89.8828 146.614C90.8018 145.968 90.8023 144.921 89.8839 144.274C88.965 143.627 87.4751 143.627 86.5567 144.274C85.6383 144.921 85.6383 145.968 86.5567 146.614Z" fill="#42E8DF"/>
</g>
<mask id="mask3_2_906" style="mask-type:luminance" maskUnits="userSpaceOnUse" x="310" y="281" width="193" height="175">
<path d="M327.291 281.162L502.914 429.073L473.812 455.12L310.244 293.184L327.291 281.162Z" fill="white"/>
</mask>
<g mask="url(#mask3_2_906)">
<path d="M473.612 427.507L473.875 426.951L406.825 379.767V355.007L406.693 354.915L328.294 299.745L328.031 300.3L406.299 355.377V380.136L406.43 380.23L473.612 427.507Z" fill="#42E8DF"/>
<path d="M472.582 428.87C473.5 429.517 474.99 429.517 475.909 428.87C476.828 428.224 476.828 427.175 475.909 426.529C474.99 425.882 473.5 425.882 472.582 426.529C471.664 427.175 471.664 428.224 472.582 428.87Z" fill="#42E8DF"/>
</g>
<mask id="mask4_2_906" style="mask-type:luminance" maskUnits="userSpaceOnUse" x="314" y="48" width="176" height="197">
<path d="M463.187 48.4222L489.215 96.8163L342.026 244.754L314.354 197.028L463.187 48.4222Z" fill="white"/>
</mask>
<g mask="url(#mask4_2_906)">
<path d="M310.023 257.903L353.395 227.381L353.396 177.622L477.579 90.2343L477.316 89.6786L352.869 177.253L352.868 227.012L309.76 257.346L310.023 257.903Z" fill="#42E8DF"/>
<path d="M475.784 91.1259C476.703 91.7724 478.193 91.7724 479.111 91.1259C480.03 90.4794 480.03 89.4315 479.111 88.7856C478.193 88.1391 476.703 88.1391 475.784 88.7856C474.866 89.4315 474.866 90.4794 475.784 91.1259Z" fill="#42E8DF"/>
</g>
<mask id="mask5_2_906" style="mask-type:luminance" maskUnits="userSpaceOnUse" x="199" y="309" width="76" height="178">
<path d="M274.412 309.568V486.197H199.829V309.568H274.412Z" fill="white"/>
</mask>
<g mask="url(#mask5_2_906)">
<path d="M267.66 480.91C268.579 481.557 270.068 481.557 270.987 480.91C271.906 480.264 271.906 479.215 270.987 478.569C270.069 477.922 268.579 477.922 267.66 478.569C266.742 479.215 266.742 480.264 267.66 480.91Z" fill="#42E8DF"/>
<path d="M269.587 479.74L269.588 444.626L269.456 444.533L201.896 396.991L201.897 359.406L265.824 314.422L265.561 313.865L201.37 359.037L201.369 397.361L201.501 397.455L269.061 444.996L269.06 479.74H269.587Z" fill="#42E8DF"/>
</g>
<mask id="mask6_2_906" style="mask-type:luminance" maskUnits="userSpaceOnUse" x="346" y="225" width="182" height="93">
<mask id="mask7_2_906" style="mask-type:alpha" maskUnits="userSpaceOnUse" x="346" y="225" width="182" height="93">
<path d="M373.868 225.393L527.025 276.125L500.114 317.535L346.958 260.791L373.868 225.393Z" fill="white"/>
</mask>
<g mask="url(#mask7_2_906)">
<path d="M-113 1.33575H601V546.336H-113V1.33575Z" fill="white"/>
</g>
</mask>
<g mask="url(#mask6_2_906)">
<path d="M498.21 300.599C499.128 301.245 500.618 301.245 501.536 300.599C502.455 299.952 502.455 298.904 501.537 298.258C500.618 297.611 499.129 297.611 498.21 298.258C497.291 298.904 497.291 299.952 498.21 300.599Z" fill="#42E8DF"/>
<path d="M372.772 257.305L392.499 270.997L457.57 270.663L497.982 298.882" stroke="#42E8E0"/>
</g>
<path d="M314.009 206.507L300.542 109.116L301.624 108.559L299.997 107.422L300 107.434C299.684 107.177 299.237 107.194 298.746 107.54L191.109 183.285C190.225 183.907 189.555 185.502 189.711 186.617L203.287 284.783C203.357 285.295 203.564 285.633 203.853 285.782L203.851 285.782L205.443 286.904L205.717 285.092L205.627 285.126L312.611 209.839C313.496 209.218 314.164 207.622 314.009 206.507Z" fill="#F4F5F8"/>
<path d="M314.301 211.02L206.663 286.765C205.832 287.35 205.121 287.012 204.975 285.964L191.4 187.798C191.245 186.683 191.913 185.087 192.797 184.465L300.434 108.72C301.266 108.136 301.977 108.473 302.123 109.522L315.698 207.688C315.853 208.803 315.185 210.398 314.301 211.02Z" fill="#F4F5F8"/>
<path d="M300.796 110.546L192.653 186.612L206.31 285.028L314.384 209.011L300.796 110.546Z" fill="#161616"/>
<path d="M381.961 257.496L376.088 261.235L317.186 219.785C316.2 219.092 314.479 219.179 313.341 219.98L211.753 291.468C210.781 290.806 206.347 288.207 206.347 288.207L208.498 292.467C208.498 292.467 208.505 292.461 208.506 292.459C208.595 292.763 208.787 293.046 209.108 293.271L271.143 336.927C272.128 337.62 273.85 337.533 274.987 336.733L378.945 263.576C379.413 263.248 379.698 262.85 379.817 262.446L379.826 262.453L381.961 257.496Z" fill="#E9EBF3"/>
<path d="M381.053 258.673L274.511 333.648C273.345 334.468 271.58 334.558 270.57 333.847L206.993 289.106C205.983 288.396 206.109 287.155 207.276 286.334L313.818 211.359C314.984 210.539 316.748 210.449 317.758 211.16L381.336 255.901C382.346 256.611 382.22 257.852 381.053 258.673Z" fill="#F4F5F8"/>
<path d="M381.053 258.091L274.51 333.067C273.344 333.887 271.58 333.976 270.57 333.266L206.993 288.525C206.637 288.275 206.43 287.958 206.353 287.617C206.24 288.169 206.439 288.717 206.993 289.107L270.57 333.847C271.58 334.558 273.344 334.468 274.51 333.648L381.053 258.673C381.809 258.141 382.12 257.434 381.977 256.807C381.883 257.263 381.58 257.72 381.053 258.091Z" fill="white"/>
<path d="M332.045 250.37L335.427 247.99C335.699 247.799 335.664 247.465 335.351 247.244L331.359 244.435C331.046 244.214 330.571 244.191 330.299 244.381L326.917 246.762C326.645 246.953 326.679 247.286 326.993 247.507L330.985 250.317C331.299 250.537 331.773 250.561 332.045 250.37Z" fill="#28283C"/>
<path d="M326.822 254.045L330.204 251.666C330.476 251.474 330.442 251.141 330.128 250.92L326.136 248.111C325.822 247.89 325.348 247.866 325.076 248.057L321.694 250.438C321.422 250.629 321.457 250.962 321.77 251.183L325.763 253.992C326.076 254.213 326.55 254.236 326.822 254.045Z" fill="#28283C"/>
<path d="M321.599 257.722L324.981 255.342C325.252 255.15 325.218 254.816 324.905 254.596L320.913 251.786C320.599 251.566 320.125 251.542 319.853 251.733L316.471 254.113C316.199 254.304 316.233 254.638 316.547 254.858L320.539 257.668C320.853 257.889 321.327 257.913 321.599 257.722Z" fill="#28283C"/>
<path d="M314.374 254.687L317.756 252.307C318.028 252.115 317.994 251.781 317.681 251.56L314.329 249.202C314.016 248.981 313.541 248.957 313.27 249.148L309.887 251.528C309.616 251.72 309.65 252.054 309.964 252.274L313.315 254.633C313.628 254.853 314.103 254.878 314.374 254.687Z" fill="#28283C"/>
<path d="M309.152 258.362L312.534 255.982C312.805 255.791 312.771 255.457 312.458 255.236L309.106 252.878C308.793 252.658 308.319 252.633 308.047 252.824L304.665 255.204C304.393 255.396 304.427 255.73 304.741 255.95L308.092 258.309C308.406 258.53 308.88 258.553 309.152 258.362Z" fill="#28283C"/>
<path d="M303.928 262.038L307.31 259.657C307.582 259.465 307.548 259.132 307.234 258.911L303.883 256.553C303.569 256.332 303.095 256.309 302.823 256.5L299.441 258.88C299.169 259.071 299.204 259.405 299.517 259.626L302.868 261.984C303.182 262.204 303.657 262.229 303.928 262.038Z" fill="#28283C"/>
<path d="M298.705 265.713L302.087 263.333C302.358 263.142 302.324 262.808 302.011 262.587L298.66 260.229C298.346 260.008 297.872 259.984 297.6 260.175L294.218 262.554C293.946 262.746 293.981 263.081 294.294 263.301L297.645 265.659C297.959 265.88 298.433 265.904 298.705 265.713Z" fill="#28283C"/>
<path d="M293.482 269.388L296.864 267.009C297.136 266.817 297.101 266.482 296.788 266.262L293.436 263.904C293.123 263.683 292.648 263.659 292.377 263.85L288.995 266.23C288.723 266.422 288.757 266.756 289.071 266.977L292.422 269.334C292.736 269.555 293.21 269.579 293.482 269.388Z" fill="#28283C"/>
<path d="M288.259 273.064L291.641 270.685C291.913 270.493 291.878 270.158 291.565 269.937L288.214 267.58C287.9 267.359 287.425 267.335 287.154 267.526L283.772 269.906C283.5 270.098 283.534 270.432 283.848 270.652L287.199 273.01C287.513 273.231 287.987 273.255 288.259 273.064Z" fill="#28283C"/>
<path d="M283.035 276.74L286.418 274.36C286.689 274.168 286.654 273.834 286.341 273.614L282.99 271.256C282.677 271.035 282.202 271.011 281.93 271.202L278.548 273.582C278.276 273.774 278.311 274.108 278.624 274.328L281.975 276.686C282.289 276.907 282.764 276.931 283.035 276.74Z" fill="#28283C"/>
<path d="M277.812 280.416L281.194 278.035C281.466 277.844 281.432 277.511 281.118 277.289L277.767 274.932C277.453 274.711 276.979 274.687 276.707 274.878L273.325 277.258C273.053 277.45 273.088 277.783 273.401 278.004L276.752 280.362C277.066 280.583 277.54 280.606 277.812 280.416Z" fill="#28283C"/>
<path d="M272.589 284.091L275.971 281.712C276.242 281.52 276.208 281.186 275.895 280.966L272.544 278.607C272.23 278.387 271.756 278.362 271.484 278.553L268.102 280.933C267.83 281.124 267.865 281.459 268.178 281.679L271.529 284.038C271.843 284.258 272.317 284.282 272.589 284.091Z" fill="#28283C"/>
<path d="M267.366 287.767L270.748 285.387C271.02 285.195 270.985 284.861 270.672 284.64L267.321 282.282C267.007 282.062 266.532 282.037 266.261 282.228L262.879 284.608C262.607 284.8 262.641 285.134 262.955 285.356L266.306 287.713C266.62 287.934 267.094 287.958 267.366 287.767Z" fill="#28283C"/>
<path d="M306.678 252.946L310.06 250.566C310.331 250.375 310.297 250.041 309.984 249.82L306.633 247.462C306.319 247.242 305.845 247.218 305.573 247.409L302.191 249.788C301.919 249.98 301.953 250.314 302.267 250.534L305.618 252.893C305.932 253.113 306.406 253.137 306.678 252.946Z" fill="#28283C"/>
<path d="M311.98 249.215L315.362 246.836C315.633 246.644 315.599 246.309 315.285 246.089L311.934 243.731C311.621 243.51 311.146 243.486 310.875 243.677L307.493 246.058C307.221 246.249 307.255 246.583 307.569 246.804L310.92 249.161C311.234 249.382 311.708 249.406 311.98 249.215Z" fill="#28283C"/>
<path d="M317.289 245.479L324.574 240.352C324.845 240.161 324.811 239.827 324.498 239.607L321.147 237.249C320.833 237.028 320.359 237.004 320.087 237.195L312.803 242.321C312.531 242.513 312.565 242.846 312.879 243.067L316.23 245.425C316.544 245.646 317.018 245.669 317.289 245.479Z" fill="#28283C"/>
<path d="M313.578 240.934L319.49 236.775C319.761 236.583 319.727 236.25 319.413 236.029L316.063 233.671C315.749 233.45 315.275 233.427 315.003 233.618L309.091 237.778C308.82 237.969 308.853 238.302 309.167 238.523L312.518 240.881C312.832 241.102 313.306 241.125 313.578 240.934Z" fill="#28283C"/>
<path d="M301.455 256.622L304.837 254.242C305.109 254.05 305.075 253.716 304.762 253.496L301.41 251.137C301.097 250.917 300.622 250.892 300.351 251.083L296.969 253.463C296.697 253.655 296.731 253.989 297.045 254.21L300.396 256.568C300.71 256.789 301.184 256.813 301.455 256.622Z" fill="#28283C"/>
<path d="M296.232 260.298L299.614 257.917C299.885 257.726 299.851 257.392 299.538 257.171L296.187 254.814C295.873 254.592 295.399 254.568 295.127 254.759L291.745 257.139C291.473 257.331 291.508 257.665 291.821 257.886L295.172 260.244C295.486 260.465 295.96 260.489 296.232 260.298Z" fill="#28283C"/>
<path d="M291.008 263.973L294.391 261.593C294.662 261.402 294.628 261.067 294.315 260.847L290.963 258.488C290.65 258.268 290.175 258.244 289.904 258.435L286.522 260.815C286.25 261.006 286.284 261.34 286.598 261.561L289.949 263.919C290.263 264.139 290.737 264.164 291.008 263.973Z" fill="#28283C"/>
<path d="M285.786 267.648L289.168 265.268C289.44 265.076 289.405 264.742 289.092 264.522L285.741 262.164C285.427 261.943 284.952 261.919 284.681 262.11L281.299 264.491C281.027 264.682 281.061 265.016 281.375 265.237L284.726 267.594C285.04 267.815 285.514 267.839 285.786 267.648Z" fill="#28283C"/>
<path d="M280.563 271.324L283.945 268.945C284.216 268.753 284.182 268.419 283.868 268.199L280.518 265.84C280.204 265.619 279.729 265.596 279.458 265.787L276.076 268.167C275.804 268.358 275.839 268.692 276.151 268.913L279.503 271.271C279.817 271.491 280.291 271.516 280.563 271.324Z" fill="#28283C"/>
<path d="M275.339 275L278.721 272.62C278.993 272.428 278.958 272.095 278.645 271.874L275.294 269.516C274.98 269.295 274.506 269.271 274.234 269.462L270.852 271.841C270.58 272.033 270.615 272.368 270.928 272.588L274.279 274.946C274.593 275.167 275.067 275.191 275.339 275Z" fill="#28283C"/>
<path d="M270.116 278.676L273.498 276.296C273.769 276.104 273.735 275.77 273.422 275.549L270.071 273.192C269.757 272.971 269.283 272.947 269.011 273.138L265.629 275.518C265.357 275.709 265.392 276.043 265.705 276.264L269.056 278.622C269.37 278.843 269.844 278.867 270.116 278.676Z" fill="#28283C"/>
<path d="M264.892 282.351L268.275 279.972C268.547 279.78 268.512 279.445 268.199 279.225L264.847 276.867C264.534 276.646 264.059 276.622 263.788 276.813L260.406 279.193C260.133 279.385 260.168 279.719 260.481 279.939L263.833 282.297C264.147 282.518 264.621 282.542 264.892 282.351Z" fill="#28283C"/>
<path d="M259.67 286.026L263.052 283.646C263.324 283.455 263.289 283.121 262.976 282.9L259.625 280.542C259.311 280.322 258.836 280.298 258.565 280.489L255.183 282.868C254.911 283.06 254.945 283.394 255.259 283.615L258.61 285.973C258.924 286.194 259.398 286.217 259.67 286.026Z" fill="#28283C"/>
<path d="M250.383 292.561L257.763 287.368C258.035 287.176 258.001 286.842 257.687 286.621L254.336 284.264C254.023 284.043 253.548 284.019 253.277 284.21L245.897 289.403C245.625 289.595 245.659 289.929 245.973 290.149L249.324 292.507C249.638 292.728 250.112 292.752 250.383 292.561Z" fill="#28283C"/>
<path d="M240.214 285.404L246.443 281.022C246.715 280.83 246.681 280.496 246.367 280.276L243.016 277.917C242.702 277.697 242.228 277.673 241.957 277.864L235.727 282.247C235.456 282.439 235.491 282.772 235.804 282.993L239.155 285.351C239.468 285.572 239.943 285.595 240.214 285.404Z" fill="#28283C"/>
<path d="M292.308 255.903L295.69 253.523C295.962 253.331 295.927 252.997 295.614 252.776L292.263 250.419C291.95 250.198 291.475 250.174 291.203 250.365L287.821 252.744C287.55 252.936 287.584 253.271 287.897 253.491L291.248 255.849C291.562 256.07 292.036 256.094 292.308 255.903Z" fill="#28283C"/>
<path d="M297.661 252.135L301.044 249.756C301.315 249.564 301.281 249.23 300.968 249.01L297.616 246.651C297.303 246.431 296.828 246.406 296.557 246.597L293.174 248.977C292.903 249.168 292.937 249.503 293.251 249.723L296.602 252.082C296.915 252.302 297.39 252.326 297.661 252.135Z" fill="#28283C"/>
<path d="M303.014 248.368L306.396 245.988C306.668 245.796 306.634 245.463 306.321 245.242L302.969 242.884C302.656 242.663 302.181 242.64 301.91 242.83L298.528 245.211C298.256 245.402 298.29 245.736 298.604 245.957L301.955 248.314C302.269 248.535 302.743 248.559 303.014 248.368Z" fill="#28283C"/>
<path d="M308.367 244.601L311.749 242.222C312.021 242.03 311.987 241.695 311.674 241.475L308.322 239.117C308.009 238.896 307.535 238.872 307.263 239.063L303.881 241.443C303.609 241.635 303.643 241.969 303.957 242.189L307.308 244.547C307.622 244.768 308.096 244.792 308.367 244.601Z" fill="#28283C"/>
<path d="M287.085 259.578L290.468 257.199C290.739 257.007 290.704 256.672 290.391 256.452L287.04 254.094C286.727 253.873 286.252 253.849 285.98 254.04L282.598 256.42C282.326 256.612 282.361 256.945 282.674 257.166L286.025 259.524C286.339 259.745 286.814 259.769 287.085 259.578Z" fill="#28283C"/>
<path d="M281.862 263.254L285.244 260.874C285.516 260.682 285.482 260.348 285.168 260.128L281.817 257.77C281.503 257.549 281.029 257.525 280.757 257.716L277.375 260.096C277.103 260.288 277.138 260.622 277.451 260.843L280.802 263.2C281.116 263.421 281.59 263.445 281.862 263.254Z" fill="#28283C"/>
<path d="M276.639 266.93L280.021 264.55C280.292 264.358 280.258 264.024 279.945 263.804L276.594 261.446C276.28 261.225 275.806 261.201 275.534 261.392L272.152 263.772C271.88 263.964 271.914 264.298 272.228 264.518L275.579 266.876C275.893 267.097 276.367 267.121 276.639 266.93Z" fill="#28283C"/>
<path d="M271.415 270.605L274.797 268.225C275.069 268.034 275.035 267.7 274.721 267.479L271.37 265.121C271.057 264.901 270.582 264.876 270.311 265.067L266.929 267.447C266.657 267.638 266.691 267.973 267.004 268.193L270.356 270.552C270.67 270.772 271.144 270.796 271.415 270.605Z" fill="#28283C"/>
<path d="M266.192 274.281L269.575 271.9C269.846 271.709 269.811 271.375 269.498 271.154L266.147 268.797C265.834 268.575 265.359 268.551 265.087 268.743L261.705 271.123C261.434 271.314 261.468 271.648 261.782 271.869L265.132 274.226C265.446 274.448 265.92 274.472 266.192 274.281Z" fill="#28283C"/>
<path d="M260.969 277.956L264.351 275.576C264.623 275.385 264.589 275.05 264.275 274.83L260.924 272.471C260.611 272.251 260.136 272.227 259.864 272.418L256.482 274.798C256.21 274.989 256.245 275.323 256.558 275.544L259.909 277.902C260.223 278.122 260.698 278.147 260.969 277.956Z" fill="#28283C"/>
<path d="M255.746 281.631L259.128 279.252C259.4 279.06 259.366 278.726 259.052 278.506L255.701 276.147C255.387 275.927 254.913 275.903 254.641 276.094L251.259 278.474C250.987 278.665 251.022 278.999 251.335 279.22L254.686 281.578C255 281.798 255.474 281.822 255.746 281.631Z" fill="#28283C"/>
<path d="M250.522 285.308L253.904 282.928C254.176 282.736 254.142 282.402 253.828 282.181L250.477 279.823C250.164 279.602 249.689 279.579 249.418 279.77L246.036 282.15C245.764 282.341 245.798 282.675 246.111 282.896L249.463 285.254C249.777 285.474 250.251 285.499 250.522 285.308Z" fill="#28283C"/>
<path d="M245.299 288.983L248.681 286.603C248.953 286.412 248.919 286.078 248.605 285.857L245.254 283.499C244.941 283.278 244.466 283.254 244.195 283.445L240.812 285.824C240.541 286.016 240.575 286.351 240.888 286.571L244.239 288.929C244.553 289.15 245.027 289.174 245.299 288.983Z" fill="#28283C"/>
<path d="M295.058 246.812L298.441 244.432C298.712 244.24 298.678 243.906 298.365 243.686L295.014 241.327C294.7 241.107 294.226 241.082 293.954 241.273L290.572 243.653C290.3 243.845 290.334 244.179 290.648 244.4L293.999 246.758C294.313 246.978 294.787 247.003 295.058 246.812Z" fill="#28283C"/>
<path d="M300.256 243.153L303.638 240.773C303.91 240.581 303.875 240.248 303.562 240.027L300.21 237.669C299.897 237.448 299.422 237.424 299.151 237.615L295.769 239.996C295.497 240.187 295.531 240.521 295.845 240.742L299.196 243.099C299.51 243.32 299.984 243.344 300.256 243.153Z" fill="#28283C"/>
<path d="M305.453 239.496L308.835 237.116C309.107 236.925 309.073 236.591 308.76 236.37L305.408 234.012C305.094 233.792 304.62 233.768 304.349 233.959L300.967 236.338C300.695 236.53 300.729 236.864 301.042 237.084L304.394 239.443C304.708 239.663 305.182 239.687 305.453 239.496Z" fill="#28283C"/>
<path d="M310.65 235.839L314.032 233.46C314.304 233.268 314.27 232.934 313.957 232.714L310.605 230.355C310.292 230.135 309.817 230.111 309.546 230.302L306.164 232.682C305.892 232.873 305.926 233.207 306.24 233.428L309.59 235.786C309.904 236.006 310.378 236.03 310.65 235.839Z" fill="#28283C"/>
<path d="M305.306 232.078L308.688 229.699C308.96 229.507 308.926 229.173 308.612 228.952L307.504 228.173C307.19 227.952 306.716 227.928 306.445 228.119L303.063 230.5C302.791 230.691 302.825 231.025 303.139 231.245L304.246 232.025C304.56 232.245 305.034 232.27 305.306 232.078Z" fill="#28283C"/>
<path d="M298.524 236.851L301.906 234.472C302.178 234.28 302.143 233.945 301.83 233.725L300.722 232.945C300.408 232.724 299.934 232.701 299.662 232.892L296.28 235.272C296.009 235.463 296.043 235.797 296.356 236.018L297.464 236.797C297.778 237.018 298.252 237.042 298.524 236.851Z" fill="#28283C"/>
<path d="M293.348 240.493L296.73 238.113C297.002 237.921 296.968 237.587 296.654 237.367L295.547 236.587C295.233 236.367 294.758 236.343 294.487 236.534L291.105 238.914C290.833 239.105 290.868 239.439 291.181 239.66L292.288 240.439C292.602 240.66 293.076 240.684 293.348 240.493Z" fill="#28283C"/>
<path d="M288.172 244.135L291.555 241.756C291.826 241.564 291.791 241.23 291.478 241.01L290.371 240.23C290.057 240.009 289.583 239.986 289.311 240.177L285.929 242.557C285.657 242.748 285.691 243.082 286.005 243.302L287.112 244.082C287.426 244.303 287.901 244.326 288.172 244.135Z" fill="#28283C"/>
<path d="M282.997 247.777L286.379 245.398C286.65 245.206 286.617 244.872 286.304 244.652L285.195 243.872C284.882 243.651 284.407 243.627 284.136 243.818L280.753 246.199C280.482 246.39 280.516 246.724 280.829 246.944L281.937 247.724C282.251 247.944 282.725 247.968 282.997 247.777Z" fill="#28283C"/>
<path d="M254.102 268.111L257.484 265.731C257.756 265.539 257.722 265.205 257.408 264.985L256.301 264.205C255.987 263.984 255.512 263.96 255.241 264.151L251.858 266.532C251.587 266.723 251.621 267.057 251.935 267.277L253.043 268.057C253.356 268.278 253.83 268.302 254.102 268.111Z" fill="#28283C"/>
<path d="M248.927 271.753L252.309 269.373C252.581 269.181 252.546 268.847 252.233 268.627L251.125 267.847C250.811 267.626 250.337 267.602 250.065 267.793L246.683 270.174C246.412 270.365 246.446 270.699 246.76 270.919L247.867 271.699C248.181 271.92 248.655 271.944 248.927 271.753Z" fill="#28283C"/>
<path d="M243.751 275.395L247.133 273.015C247.405 272.823 247.371 272.489 247.057 272.269L245.95 271.489C245.636 271.268 245.162 271.244 244.89 271.435L241.508 273.816C241.236 274.007 241.271 274.341 241.584 274.561L242.691 275.341C243.005 275.562 243.48 275.586 243.751 275.395Z" fill="#28283C"/>
<path d="M238.575 279.037L241.958 276.657C242.229 276.465 242.196 276.131 241.882 275.91L240.774 275.131C240.46 274.91 239.986 274.886 239.714 275.077L236.332 277.458C236.061 277.649 236.095 277.983 236.408 278.203L237.515 278.983C237.829 279.204 238.304 279.228 238.575 279.037Z" fill="#28283C"/>
<path d="M289.836 250.487L293.218 248.107C293.49 247.916 293.455 247.581 293.142 247.361L289.791 245.002C289.477 244.782 289.002 244.758 288.731 244.949L285.349 247.328C285.077 247.52 285.111 247.854 285.425 248.074L288.776 250.433C289.09 250.653 289.564 250.678 289.836 250.487Z" fill="#28283C"/>
<path d="M284.612 254.162L287.995 251.781C288.266 251.59 288.231 251.256 287.918 251.035L284.567 248.678C284.254 248.457 283.779 248.433 283.507 248.624L280.125 251.004C279.853 251.196 279.887 251.53 280.201 251.75L283.552 254.108C283.866 254.329 284.34 254.353 284.612 254.162Z" fill="#28283C"/>
<path d="M279.389 257.838L282.771 255.458C283.043 255.266 283.009 254.932 282.695 254.712L279.344 252.354C279.03 252.133 278.556 252.109 278.284 252.3L274.902 254.68C274.63 254.872 274.665 255.206 274.978 255.426L278.329 257.784C278.643 258.005 279.118 258.029 279.389 257.838Z" fill="#28283C"/>
<path d="M274.166 261.513L277.548 259.133C277.819 258.942 277.785 258.608 277.472 258.387L274.121 256.029C273.807 255.809 273.333 255.784 273.061 255.975L269.679 258.355C269.407 258.546 269.442 258.881 269.755 259.102L273.106 261.46C273.42 261.681 273.894 261.704 274.166 261.513Z" fill="#28283C"/>
<path d="M268.943 265.189L272.325 262.81C272.597 262.618 272.562 262.284 272.249 262.064L268.897 259.705C268.584 259.485 268.109 259.46 267.838 259.651L264.456 262.031C264.184 262.222 264.218 262.557 264.532 262.778L267.883 265.136C268.197 265.356 268.671 265.38 268.943 265.189Z" fill="#28283C"/>
<path d="M263.719 268.865L267.101 266.485C267.373 266.293 267.338 265.959 267.025 265.738L263.674 263.38C263.361 263.16 262.886 263.135 262.614 263.327L259.232 265.706C258.961 265.898 258.995 266.232 259.308 266.452L262.659 268.811C262.973 269.031 263.447 269.056 263.719 268.865Z" fill="#28283C"/>
<path d="M258.496 272.54L261.878 270.16C262.15 269.969 262.115 269.635 261.802 269.414L258.451 267.057C258.138 266.836 257.662 266.812 257.391 267.003L254.009 269.383C253.737 269.575 253.772 269.908 254.085 270.129L257.436 272.487C257.75 272.708 258.225 272.732 258.496 272.54Z" fill="#28283C"/>
<path d="M253.273 276.216L256.655 273.836C256.927 273.645 256.893 273.311 256.579 273.09L253.228 270.732C252.914 270.512 252.44 270.488 252.168 270.679L248.786 273.058C248.514 273.25 248.549 273.584 248.862 273.804L252.213 276.163C252.527 276.383 253.001 276.407 253.273 276.216Z" fill="#28283C"/>
<path d="M248.049 279.892L251.432 277.512C251.704 277.32 251.669 276.986 251.356 276.766L248.005 274.407C247.691 274.187 247.216 274.162 246.945 274.353L243.563 276.733C243.29 276.925 243.325 277.259 243.638 277.48L246.99 279.838C247.304 280.059 247.778 280.083 248.049 279.892Z" fill="#28283C"/>
<path d="M319.697 250.94L329.658 243.931C329.93 243.74 329.896 243.405 329.582 243.185L326.231 240.827C325.918 240.606 325.443 240.581 325.171 240.772L315.21 247.782C314.939 247.974 314.973 248.308 315.287 248.528L318.637 250.886C318.951 251.107 319.425 251.131 319.697 250.94Z" fill="#28283C"/>
<path d="M255.529 296.096L265.49 289.086C265.761 288.895 265.727 288.561 265.414 288.341L262.063 285.983C261.749 285.762 261.275 285.738 261.003 285.929L251.042 292.938C250.77 293.13 250.805 293.464 251.118 293.684L254.469 296.043C254.783 296.263 255.257 296.287 255.529 296.096Z" fill="#28283C"/>
<path d="M276.417 289.516L279.799 287.136C280.071 286.944 280.036 286.611 279.723 286.39L275.731 283.581C275.418 283.361 274.943 283.337 274.671 283.528L271.289 285.908C271.017 286.099 271.052 286.433 271.365 286.653L275.357 289.462C275.671 289.684 276.145 289.707 276.417 289.516Z" fill="#28283C"/>
<path d="M314.348 262.824L319.757 259.017C320.029 258.826 319.995 258.492 319.681 258.272L315.689 255.463C315.375 255.241 314.901 255.218 314.629 255.409L309.22 259.216C308.948 259.407 308.982 259.74 309.296 259.961L313.289 262.77C313.603 262.991 314.076 263.015 314.348 262.824Z" fill="#28283C"/>
<path d="M281.45 285.975L286.859 282.168C287.13 281.977 287.097 281.643 286.783 281.422L282.791 278.613C282.477 278.392 282.003 278.368 281.731 278.559L276.322 282.366C276.051 282.557 276.085 282.891 276.398 283.111L280.39 285.921C280.704 286.142 281.178 286.165 281.45 285.975Z" fill="#28283C"/>
<path d="M306.812 268.127L312.221 264.32C312.492 264.129 312.459 263.795 312.145 263.575L308.153 260.765C307.839 260.544 307.365 260.52 307.094 260.711L301.684 264.518C301.412 264.709 301.447 265.043 301.76 265.263L305.753 268.073C306.066 268.294 306.54 268.318 306.812 268.127Z" fill="#28283C"/>
<path d="M307.057 260.738L283.54 277.287C283.248 277.492 283.248 277.825 283.54 278.031L287.61 280.895C287.903 281.1 288.376 281.1 288.668 280.895L312.185 264.346L307.057 260.738Z" fill="#28283C"/>
<path d="M261.819 296.18L258.052 298.832C257.83 298.988 257.858 299.261 258.114 299.443L259.747 300.592C260.004 300.773 260.393 300.792 260.616 300.636L264.383 297.984C264.606 297.828 264.578 297.554 264.321 297.373L262.688 296.223C262.431 296.043 262.042 296.024 261.819 296.18Z" fill="#28283C"/>
<path d="M267.086 292.474L263.318 295.126C263.096 295.282 263.124 295.555 263.38 295.736L265.014 296.885C265.27 297.066 265.659 297.086 265.882 296.93L269.65 294.278C269.872 294.122 269.844 293.848 269.587 293.667L267.954 292.517C267.697 292.337 267.308 292.318 267.086 292.474Z" fill="#28283C"/>
<path d="M272.31 288.798L268.542 291.449C268.319 291.606 268.347 291.88 268.604 292.061L270.238 293.209C270.494 293.39 270.883 293.41 271.106 293.253L274.874 290.603C275.096 290.446 275.068 290.172 274.81 289.991L273.178 288.842C272.921 288.661 272.532 288.642 272.31 288.798Z" fill="#28283C"/>
<path d="M264.202 290.444L260.434 293.095C260.212 293.252 260.24 293.526 260.496 293.707L262.13 294.855C262.386 295.037 262.775 295.057 262.998 294.9L266.766 292.249C266.988 292.093 266.96 291.819 266.703 291.638L265.07 290.488C264.813 290.307 264.424 290.288 264.202 290.444Z" fill="#28283C"/>
<path d="M210.914 191.391C211.171 191.391 211.443 191.298 211.703 191.115C212.502 190.553 212.997 189.279 212.807 188.275C212.715 187.791 212.48 187.427 212.145 187.25C211.775 187.053 211.319 187.11 210.891 187.411C210.092 187.974 209.597 189.248 209.788 190.252C209.879 190.735 210.114 191.099 210.449 191.276C210.594 191.352 210.752 191.391 210.914 191.391ZM211.678 187.576C211.793 187.576 211.902 187.602 212 187.654C212.227 187.775 212.389 188.03 212.454 188.375C212.611 189.203 212.193 190.26 211.522 190.733C211.197 190.962 210.86 191.012 210.594 190.872C210.366 190.751 210.205 190.496 210.14 190.151C209.983 189.324 210.402 188.265 211.073 187.793C211.277 187.65 211.485 187.576 211.678 187.576Z" fill="#42E8DF"/>
<path d="M206.607 194.422C206.865 194.422 207.136 194.329 207.396 194.147C208.195 193.584 208.69 192.311 208.5 191.306C208.409 190.823 208.173 190.459 207.839 190.281C207.468 190.084 207.011 190.142 206.584 190.442C205.785 191.005 205.29 192.279 205.481 193.283C205.572 193.766 205.807 194.13 206.143 194.308C206.287 194.384 206.445 194.422 206.607 194.422ZM207.371 190.607C207.486 190.607 207.595 190.633 207.693 190.687C207.92 190.806 208.082 191.062 208.147 191.406C208.304 192.234 207.886 193.292 207.215 193.764C206.891 193.993 206.552 194.043 206.287 193.904C206.059 193.783 205.898 193.528 205.833 193.182C205.676 192.356 206.095 191.297 206.766 190.824C206.97 190.681 207.178 190.607 207.371 190.607Z" fill="#42E8DF"/>
<path d="M201.35 196.263C201.524 197.18 202.263 197.504 202.999 196.986C203.735 196.468 204.191 195.304 204.017 194.386C203.843 193.469 203.105 193.146 202.368 193.664C201.632 194.182 201.176 195.346 201.35 196.263Z" fill="#42E8DF"/>
<path d="M283.927 138.341L286.23 136.72L286.051 135.422L283.748 137.043L283.927 138.341Z" fill="#42E8DF"/>
<path d="M280.578 140.697L282.882 139.077L282.703 137.779L280.4 139.4L280.578 140.697Z" fill="#42E8DF"/>
<path d="M287.241 136.01L292.293 132.455L292.114 131.157L287.062 134.712L287.241 136.01Z" fill="#42E8DF"/>
<path d="M237.312 180.778C237.686 180.778 238.072 180.647 238.442 180.386L258.626 166.184C259.871 165.307 260.568 163.192 260.178 161.469C259.981 160.6 259.546 159.958 258.952 159.66C258.373 159.371 257.717 159.449 257.104 159.881L236.92 174.084C235.674 174.962 234.978 177.076 235.368 178.799C235.565 179.668 236.001 180.31 236.594 180.607C236.824 180.722 237.066 180.778 237.312 180.778ZM258.235 159.931C258.435 159.931 258.63 159.977 258.815 160.07C259.302 160.313 259.662 160.852 259.828 161.586C260.177 163.128 259.556 165.019 258.444 165.802L238.26 180.004C237.747 180.367 237.205 180.437 236.732 180.198C236.244 179.955 235.884 179.416 235.718 178.681C235.368 177.14 235.989 175.25 237.102 174.466L257.286 160.264C257.599 160.043 257.923 159.931 258.235 159.931Z" fill="#42E8DF"/>
<path d="M287.882 161.864L291.82 159.095L291.667 157.985L287.73 160.756L287.882 161.864Z" fill="#42E8DF"/>
<path d="M284.523 164.229L286.491 162.844L286.338 161.735L284.37 163.12L284.523 164.229Z" fill="#42E8DF"/>
<path d="M287.078 165.283L288.756 164.103L288.603 162.994L286.925 164.174L287.078 165.283Z" fill="#42E8DF"/>
<path d="M284.268 167.26L286.237 165.876L286.084 164.766L284.117 166.152L284.268 167.26Z" fill="#42E8DF"/>
<path d="M281.378 172.148L289.114 166.704L288.961 165.594L281.225 171.038L281.378 172.148Z" fill="#42E8DF"/>
<path d="M275.493 176.288L277.462 174.904L277.309 173.794L275.341 175.179L275.493 176.288Z" fill="#42E8DF"/>
<path d="M278.469 174.194L280.438 172.809L280.285 171.7L278.317 173.085L278.469 174.194Z" fill="#42E8DF"/>
<path d="M270.875 179.538L274.6 176.917L274.448 175.809L270.723 178.429L270.875 179.538Z" fill="#42E8DF"/>
<path d="M268.139 181.463L269.916 180.213L269.763 179.104L267.987 180.354L268.139 181.463Z" fill="#42E8DF"/>
<path d="M262.873 185.169L267.189 182.132L267.037 181.023L262.72 184.06L262.873 185.169Z" fill="#42E8DF"/>
<path d="M257.606 188.875L261.923 185.838L261.771 184.729L257.454 187.767L257.606 188.875Z" fill="#42E8DF"/>
<path d="M287.794 170.485L289.472 169.304L289.318 168.195L287.642 169.375L287.794 170.485Z" fill="#42E8DF"/>
<path d="M284.984 172.462L286.953 171.077L286.8 169.968L284.832 171.352L284.984 172.462Z" fill="#42E8DF"/>
<path d="M285.576 174.898L289.829 171.905L289.676 170.796L285.424 173.789L285.576 174.898Z" fill="#42E8DF"/>
<path d="M282.729 176.901L284.698 175.517L284.545 174.407L282.577 175.793L282.729 176.901Z" fill="#42E8DF"/>
<path d="M279.868 178.914L281.837 177.53L281.684 176.42L279.716 177.806L279.868 178.914Z" fill="#42E8DF"/>
<path d="M275.25 182.164L278.975 179.543L278.823 178.435L275.098 181.056L275.25 182.164Z" fill="#42E8DF"/>
<path d="M273.049 183.714L274.375 182.781L274.223 181.671L272.896 182.604L273.049 183.714Z" fill="#42E8DF"/>
<path d="M268.832 186.681L272.094 184.386L271.941 183.276L268.68 185.572L268.832 186.681Z" fill="#42E8DF"/>
<path d="M267.946 187.304L271.208 185.009L271.055 183.899L267.794 186.195L267.946 187.304Z" fill="#42E8DF"/>
<path d="M275.046 185.16L277.014 183.776L276.861 182.667L274.893 184.052L275.046 185.16Z" fill="#42E8DF"/>
<path d="M272.185 187.175L274.153 185.79L274 184.681L272.032 186.066L272.185 187.175Z" fill="#42E8DF"/>
<path d="M267.566 190.424L271.291 187.804L271.139 186.695L267.414 189.316L267.566 190.424Z" fill="#42E8DF"/>
<path d="M288.41 175.756L290.186 174.506L290.034 173.397L288.258 174.646L288.41 175.756Z" fill="#42E8DF"/>
<path d="M283.144 179.462L287.461 176.425L287.309 175.316L282.992 178.353L283.144 179.462Z" fill="#42E8DF"/>
<path d="M277.877 183.168L282.194 180.131L282.042 179.022L277.725 182.059L277.877 183.168Z" fill="#42E8DF"/>
<path d="M278.198 185.795L280.167 184.41L280.014 183.301L278.046 184.686L278.198 185.795Z" fill="#42E8DF"/>
<path d="M273.58 189.044L277.305 186.424L277.153 185.315L273.428 187.936L273.58 189.044Z" fill="#42E8DF"/>
<path d="M288.577 178.492L290.545 177.107L290.392 175.998L288.424 177.383L288.577 178.492Z" fill="#42E8DF"/>
<path d="M285.715 180.506L287.683 179.121L287.53 178.012L285.563 179.397L285.715 180.506Z" fill="#42E8DF"/>
<path d="M281.097 183.755L284.822 181.135L284.669 180.026L280.944 182.647L281.097 183.755Z" fill="#42E8DF"/>
<path d="M286.547 182.772L290.864 179.735L290.712 178.626L286.395 181.663L286.547 182.772Z" fill="#42E8DF"/>
<path d="M284.272 184.374L285.598 183.441L285.445 182.332L284.119 183.265L284.272 184.374Z" fill="#42E8DF"/>
<path d="M281.991 185.979L283.317 185.046L283.165 183.936L281.839 184.869L281.991 185.979Z" fill="#42E8DF"/>
<path d="M277.775 188.945L281.036 186.65L280.884 185.541L277.623 187.837L277.775 188.945Z" fill="#42E8DF"/>
<path d="M289.292 183.694L291.26 182.309L291.108 181.2L289.14 182.585L289.292 183.694Z" fill="#42E8DF"/>
<path d="M284.674 186.943L288.399 184.323L288.247 183.214L284.522 185.834L284.674 186.943Z" fill="#42E8DF"/>
<path d="M293.675 183.462L295.001 182.529L294.849 181.42L293.523 182.353L293.675 183.462Z" fill="#42E8DF"/>
<path d="M289.459 186.429L292.721 184.133L292.569 183.024L289.307 185.319L289.459 186.429Z" fill="#42E8DF"/>
<path d="M285.152 189.46L288.413 187.165L288.261 186.056L284.999 188.351L285.152 189.46Z" fill="#42E8DF"/>
<path d="M288.083 193.92L295.819 188.476L295.667 187.367L287.931 192.811L288.083 193.92Z" fill="#42E8DF"/>
<path d="M285.109 196.014L287.077 194.629L286.924 193.52L284.957 194.905L285.109 196.014Z" fill="#42E8DF"/>
<path d="M282.028 198.181L283.997 196.796L283.844 195.687L281.877 197.072L282.028 198.181Z" fill="#42E8DF"/>
<path d="M277.411 201.431L281.136 198.809L280.984 197.7L277.259 200.322L277.411 201.431Z" fill="#42E8DF"/>
<path d="M279.885 202.542L281.853 201.157L281.701 200.048L279.732 201.434L279.885 202.542Z" fill="#42E8DF"/>
<path d="M275.267 205.792L278.992 203.171L278.84 202.061L275.115 204.683L275.267 205.792Z" fill="#42E8DF"/>
<path d="M291.369 194.46L292.695 193.527L292.543 192.418L291.217 193.351L291.369 194.46Z" fill="#42E8DF"/>
<path d="M287.153 197.428L290.415 195.132L290.262 194.023L287.001 196.318L287.153 197.428Z" fill="#42E8DF"/>
<path d="M282.845 200.459L286.107 198.164L285.954 197.054L282.692 199.35L282.845 200.459Z" fill="#42E8DF"/>
<path d="M285.311 201.576L289.564 198.584L289.411 197.475L285.159 200.468L285.311 201.576Z" fill="#42E8DF"/>
<path d="M282.464 203.58L284.433 202.195L284.28 201.086L282.312 202.471L282.464 203.58Z" fill="#42E8DF"/>
<path d="M279.603 205.593L281.571 204.208L281.418 203.099L279.451 204.484L279.603 205.593Z" fill="#42E8DF"/>
<path d="M274.985 208.843L278.71 206.221L278.558 205.113L274.832 207.735L274.985 208.843Z" fill="#42E8DF"/>
<path d="M272.031 210.922L274 209.537L273.847 208.428L271.879 209.813L272.031 210.922Z" fill="#42E8DF"/>
<path d="M267.413 214.172L271.138 211.55L270.985 210.441L267.261 213.062L267.413 214.172Z" fill="#42E8DF"/>
<path d="M281.579 209.908L283.548 208.523L283.395 207.414L281.427 208.798L281.579 209.908Z" fill="#42E8DF"/>
<path d="M276.961 213.157L280.686 210.536L280.534 209.428L276.808 212.049L276.961 213.157Z" fill="#42E8DF"/>
<path d="M291.861 202.672L293.829 201.287L293.676 200.179L291.708 201.563L291.861 202.672Z" fill="#42E8DF"/>
<path d="M288.999 204.686L290.968 203.302L290.815 202.192L288.847 203.578L288.999 204.686Z" fill="#42E8DF"/>
<path d="M284.381 207.936L288.106 205.315L287.954 204.205L284.229 206.827L284.381 207.936Z" fill="#42E8DF"/>
<path d="M288.145 202.435L289.921 201.185L289.769 200.076L287.993 201.325L288.145 202.435Z" fill="#42E8DF"/>
<path d="M282.879 206.14L287.196 203.103L287.043 201.994L282.726 205.032L282.879 206.14Z" fill="#42E8DF"/>
<path d="M277.612 209.846L281.929 206.809L281.777 205.7L277.46 208.738L277.612 209.846Z" fill="#42E8DF"/>
<path d="M266.246 217.845L268.214 216.461L268.061 215.351L266.093 216.736L266.246 217.845Z" fill="#42E8DF"/>
<path d="M261.628 221.095L265.353 218.474L265.2 217.365L261.475 219.987L261.628 221.095Z" fill="#42E8DF"/>
<path d="M273.514 212.731L276.776 210.435L276.623 209.326L273.361 211.622L273.514 212.731Z" fill="#42E8DF"/>
<path d="M269.206 215.763L272.468 213.466L272.316 212.358L269.054 214.653L269.206 215.763Z" fill="#42E8DF"/>
<g opacity="0.152066">
<path d="M290.869 206.201L292.212 205.257L292.058 204.133L290.715 205.078L290.869 206.201Z" fill="#42E8DF"/>
<path d="M288.561 207.826L289.903 206.882L289.749 205.758L288.406 206.703L288.561 207.826Z" fill="#42E8DF"/>
<path d="M284.291 210.83L287.594 208.506L287.439 207.383L284.137 209.707L284.291 210.83Z" fill="#42E8DF"/>
<path d="M283.394 211.461L286.697 209.137L286.542 208.014L283.24 210.338L283.394 211.461Z" fill="#42E8DF"/>
</g>
</g>
</g>
<defs>
<clipPath id="clip0_2_906">
<rect width="585" height="523" fill="white" transform="matrix(-1 0 0 1 585 0)"/>
</clipPath>
</defs>
</svg>
